name C:\Users\u0101727\Documents\MyRepositories\upper-imu-dc\Results\main_tracking\Case_45\kinematics_filtered.mot
datacolumns 10
datarows 28
range 3.50000000 3.66200000
endheader 
time	clav_prot	clav_elev	scapula_abduction	scapula_elevation	scapula_upward_rot	scapula_winging	plane_elv	shoulder_elv	axial_rot	
          3.50000000	        -44.43670380	          9.02968117	          0.87272248	         -1.63502376	         84.22924635	        -11.79119086	         37.77655166	         87.70176227	         -7.44405041	
          3.50600000	        -44.43646772	          9.03174640	          0.86855989	         -1.63427110	         84.22393077	        -11.79251308	         37.80303130	         87.68408710	         -7.42084852	
          3.51200000	        -44.43596760	          9.03358781	          0.86460845	         -1.63369576	         84.21823113	        -11.79367507	         37.82882036	         87.66602460	         -7.39751223	
          3.51800000	        -44.43521150	          9.03516749	          0.86086678	         -1.63332360	         84.21215162	        -11.79467170	         37.85383550	         87.64759158	         -7.37401224	
          3.52400000	        -44.43420787	          9.03644880	          0.85733500	         -1.63317925	         84.20569960	        -11.79549784	         37.87800216	         87.62880777	         -7.35031461	
          3.53000000	        -44.43296562	          9.03739718	          0.85401438	         -1.63328561	         84.19888561	        -11.79614861	         37.90125508	         87.60969570	         -7.32638147	
          3.53600000	        -44.43149416	          9.03798083	          0.85090702	         -1.63366329	         84.19172334	        -11.79661959	         37.92353858	         87.59028051	         -7.30217193	
          3.54200000	        -44.42980347	          9.03817144	          0.84801553	         -1.63433026	         84.18422943	        -11.79690708	         37.94480674	         87.57058965	         -7.27764354	
          3.54800000	        -44.42790407	          9.03794481	          0.84534266	         -1.63530137	         84.17642333	        -11.79700829	         37.96502341	         87.55065265	         -7.25275396	
          3.55400000	        -44.42580701	          9.03728137	          0.84289106	         -1.63658809	         84.16832692	        -11.79692148	         37.98416210	         87.53050077	         -7.22746299	
          3.56000000	        -44.42352381	          9.03616665	          0.84066294	         -1.63819818	         84.15996417	        -11.79664614	         38.00220576	         87.51016659	         -7.20173486	
          3.56600000	        -44.42106628	          9.03459166	          0.83865988	         -1.64013553	         84.15136070	        -11.79618303	         38.01914646	         87.48968360	         -7.17554064	
          3.57200000	        -44.41844647	          9.03255315	          0.83688258	         -1.64240000	         84.14254328	        -11.79553434	         38.03498498	         87.46908575	         -7.14886078	
          3.57800000	        -44.41567643	          9.03005378	          0.83533074	         -1.64498737	         84.13353924	        -11.79470362	         38.04973034	         87.44840693	         -7.12168757	
          3.58400000	        -44.41276803	          9.02710215	          0.83400286	         -1.64788938	         84.12437589	        -11.79369584	         38.06339931	         87.42768041	         -7.09402759	
          3.59000000	        -44.40973275	          9.02371283	          0.83289623	         -1.65109379	         84.11507991	        -11.79251732	         38.07601597	         87.40693834	         -7.06590384	
          3.59600000	        -44.40658143	          9.01990614	          0.83200678	         -1.65458454	         84.10567665	        -11.79117568	         38.08761116	         87.38621113	         -7.03735768	
          3.60200000	        -44.40332403	          9.01570795	          0.83132911	         -1.65834198	         84.09618951	        -11.78967973	         38.09822214	         87.36552695	         -7.00845033	
          3.60800000	        -44.39996939	          9.01114938	          0.83085644	         -1.66234315	         84.08663927	        -11.78803935	         38.10789218	         87.34491112	         -6.97926400	
          3.61400000	        -44.39652500	          9.00626635	          0.83058063	         -1.66656214	         84.07704342	        -11.78626535	         38.11667029	         87.32438565	         -6.94990245	
          3.62000000	        -44.39299675	          9.00109912	          0.83049225	         -1.67097039	         84.06741561	        -11.78436934	         38.12461101	         87.30396870	         -6.92049115	
          3.62600000	        -44.38938873	          8.99569182	          0.83058060	         -1.67553717	         84.05776500	        -11.78236350	         38.13177431	         87.28367417	         -6.89117675	
          3.63200000	        -44.38570297	          8.99009178	          0.83083388	         -1.68023000	         84.04809579	        -11.78026043	         38.13822546	         87.26351132	         -6.86212614	
          3.63800000	        -44.38193925	          8.98434903	          0.83123932	         -1.68501507	         84.03840671	        -11.77807291	         38.14403510	         87.24348446	         -6.83352490	
          3.64400000	        -44.37809488	          8.97851558	          0.83178342	         -1.68985771	         84.02869064	        -11.77581370	         38.14927926	         87.22359272	         -6.80557530	
          3.65000000	        -44.37416443	          8.97264484	          0.83245223	         -1.69472287	         84.01893427	        -11.77349525	         38.15403941	         87.20382988	         -6.77849378	
          3.65600000	        -44.37013951	          8.96679095	          0.83323171	         -1.69957555	         84.00911781	        -11.77112945	         38.15840251	         87.18418438	         -6.75250807	
          3.66200000	        -44.36600853	          8.96100814	          0.83410823	         -1.70438122	         83.99921481	        -11.76872729	         38.16246110	         87.16463929	         -6.72785395	
